<svg aria-hidden="true" style="position: absolute; width: 0; height: 0; overflow: hidden;" version="1.1" xmlns="http://www.w3.org/2000/svg" xmlns:xlink="http://www.w3.org/1999/xlink">
<defs>
<symbol id="icon-award" viewBox="0 0 27 32">
<path d="M31.2 27.655c0.032 0.031 0.063 0.060 0.094 0.092 0.976 1.008 0.935 2.603-0.094 3.559-0.463 0.429-1.085 0.692-1.769 0.692-0.729 0-1.389-0.3-1.862-0.782l-0-0-9.051-8.819c-1.79 1.051-3.943 1.672-6.24 1.672-2.653 0-5.113-0.828-7.136-2.24l0.041 0.027c-5.533-3.84-6.843-11.349-2.926-16.774 3.918-5.425 11.579-6.709 17.111-2.869s6.843 11.351 2.925 16.775zM12.273 19.81c4.373-0.006 7.915-3.488 7.907-7.775-0.009-4.281-3.552-7.747-7.918-7.746-4.373 0.002-7.915 3.477-7.915 7.764 0.003 4.286 3.548 7.758 7.92 7.757h0.005z"></path>
</symbol>
<symbol id="icon-facebook" viewBox="0 0 32 32">
<path d="M31.2 27.655c0.032 0.031 0.063 0.060 0.094 0.092 0.976 1.008 0.935 2.603-0.094 3.559-0.463 0.429-1.085 0.692-1.769 0.692-0.729 0-1.389-0.3-1.862-0.782l-0-0-9.051-8.819c-1.79 1.051-3.943 1.672-6.24 1.672-2.653 0-5.113-0.828-7.136-2.24l0.041 0.027c-5.533-3.84-6.843-11.349-2.926-16.774 3.918-5.425 11.579-6.709 17.111-2.869s6.843 11.351 2.925 16.775zM12.273 19.81c4.373-0.006 7.915-3.488 7.907-7.775-0.009-4.281-3.552-7.747-7.918-7.746-4.373 0.002-7.915 3.477-7.915 7.764 0.003 4.286 3.548 7.758 7.92 7.757h0.005z"></path>
</symbol>
<symbol id="icon-instagram" viewBox="0 0 32 32">
<path d="M31.2 27.655c0.032 0.031 0.063 0.060 0.094 0.092 0.976 1.008 0.935 2.603-0.094 3.559-0.463 0.429-1.085 0.692-1.769 0.692-0.729 0-1.389-0.3-1.862-0.782l-0-0-9.051-8.819c-1.79 1.051-3.943 1.672-6.24 1.672-2.653 0-5.113-0.828-7.136-2.24l0.041 0.027c-5.533-3.84-6.843-11.349-2.926-16.774 3.918-5.425 11.579-6.709 17.111-2.869s6.843 11.351 2.925 16.775zM12.273 19.81c4.373-0.006 7.915-3.488 7.907-7.775-0.009-4.281-3.552-7.747-7.918-7.746-4.373 0.002-7.915 3.477-7.915 7.764 0.003 4.286 3.548 7.758 7.92 7.757h0.005z"></path>
</symbol>
<symbol id="icon-search" viewBox="0 0 32 32">
<path d="M31.2 27.655c0.032 0.031 0.063 0.060 0.094 0.092 0.976 1.008 0.935 2.603-0.094 3.559-0.463 0.429-1.085 0.692-1.769 0.692-0.729 0-1.389-0.3-1.862-0.782l-0-0-9.051-8.819c-1.79 1.051-3.943 1.672-6.24 1.672-2.653 0-5.113-0.828-7.136-2.24l0.041 0.027c-5.533-3.84-6.843-11.349-2.926-16.774 3.918-5.425 11.579-6.709 17.111-2.869s6.843 11.351 2.925 16.775zM12.273 19.81c4.373-0.006 7.915-3.488 7.907-7.775-0.009-4.281-3.552-7.747-7.918-7.746-4.373 0.002-7.915 3.477-7.915 7.764 0.003 4.286 3.548 7.758 7.92 7.757h0.005z"></path>
</symbol>
<symbol id="icon-twitter" viewBox="0 0 32 32">
<path d="M31.2 27.655c0.032 0.031 0.063 0.060 0.094 0.092 0.976 1.008 0.935 2.603-0.094 3.559-0.463 0.429-1.085 0.692-1.769 0.692-0.729 0-1.389-0.3-1.862-0.782l-0-0-9.051-8.819c-1.79 1.051-3.943 1.672-6.24 1.672-2.653 0-5.113-0.828-7.136-2.24l0.041 0.027c-5.533-3.84-6.843-11.349-2.926-16.774 3.918-5.425 11.579-6.709 17.111-2.869s6.843 11.351 2.925 16.775zM12.273 19.81c4.373-0.006 7.915-3.488 7.907-7.775-0.009-4.281-3.552-7.747-7.918-7.746-4.373 0.002-7.915 3.477-7.915 7.764 0.003 4.286 3.548 7.758 7.92 7.757h0.005z"></path>
</symbol>
<symbol id="icon-whats-app" viewBox="0 0 32 32">
<path d="M31.2 27.655c0.032 0.031 0.063 0.060 0.094 0.092 0.976 1.008 0.935 2.603-0.094 3.559-0.463 0.429-1.085 0.692-1.769 0.692-0.729 0-1.389-0.3-1.862-0.782l-0-0-9.051-8.819c-1.79 1.051-3.943 1.672-6.24 1.672-2.653 0-5.113-0.828-7.136-2.24l0.041 0.027c-5.533-3.84-6.843-11.349-2.926-16.774 3.918-5.425 11.579-6.709 17.111-2.869s6.843 11.351 2.925 16.775zM12.273 19.81c4.373-0.006 7.915-3.488 7.907-7.775-0.009-4.281-3.552-7.747-7.918-7.746-4.373 0.002-7.915 3.477-7.915 7.764 0.003 4.286 3.548 7.758 7.92 7.757h0.005z"></path>
</symbol>
</defs>
</svg>
