<svg xmlns="http://www.w3.org/2000/svg" width="30" height="30" viewBox="0 0 30 30"><g><g><path fill="#fff" d="M29.25 25.927c.03.029.059.056.088.086.915.945.877 2.44-.088 3.337a2.443 2.443 0 0 1-3.404-.085l-8.485-8.268a11.7 11.7 0 0 1-12.502-.507C-.328 16.89-1.556 9.85 2.116 4.764c3.673-5.086 10.855-6.29 16.042-2.69 5.187 3.6 6.415 10.642 2.742 15.727zm-17.744-7.355c4.1-.006 7.42-3.27 7.413-7.289-.008-4.013-3.33-7.263-7.423-7.262-4.1.002-7.42 3.26-7.42 7.279.003 4.018 3.326 7.273 7.425 7.272h.005z"/></g></g></svg>